<svg width="180" height="180" viewBox="0 0 180 180" fill="none" xmlns="http://www.w3.org/2000/svg">
<path d="M90 0L106.504 12.3546L126.606 7.78091L136.658 25.7802L156.883 29.7782L158.745 50.31L175.595 62.1885L168.945 81.7025L179.507 99.4076L165.495 114.53L167.942 135L148.991 143.116L142.901 162.812L122.287 162.517L108.712 178.033L90 169.38L71.2879 178.033L57.7132 162.517L37.0993 162.812L31.0092 143.116L12.0577 135L14.5051 114.53L0.493027 99.4076L11.0548 81.7025L4.40491 62.1885L21.2549 50.31L23.117 29.7782L43.3416 25.7802L53.3937 7.78091L73.496 12.3546L90 0Z" fill="#4B4B4B"/>
<path d="M31.3175 97.4233L28.3572 82.1863L31.469 81.5818L32.649 87.6551L39.2588 86.3709L38.0788 80.2976L41.1906 79.6931L44.1509 94.93L41.0391 95.5346L39.8342 89.3325L33.2243 90.6167L34.4293 96.8187L31.3175 97.4233ZM51.7753 93.6937C50.13 94.0133 48.6752 93.7467 47.4107 92.8936C46.1606 92.0378 45.3772 90.7944 45.0603 89.1634C44.749 87.561 45.0198 86.1276 45.8729 84.8632C46.7402 83.596 47.9894 82.804 49.6204 82.4871C51.2657 82.1675 52.7418 82.4672 54.0487 83.3862C55.3528 84.2909 56.151 85.7244 56.4432 87.6869L48.0736 89.3129C48.2615 89.9742 48.6502 90.4852 49.2399 90.8457C49.8268 91.1919 50.5567 91.2803 51.4294 91.1107C51.9587 91.0079 52.4043 90.8174 52.7659 90.5393C53.1392 90.244 53.3755 89.8938 53.4749 89.4884L56.5437 88.8922C56.443 90.055 55.96 91.0842 55.0947 91.9798C54.2266 92.8611 53.1202 93.4324 51.7753 93.6937ZM49.9973 84.8859C49.3249 85.0166 48.7945 85.3052 48.4062 85.7518C48.0294 86.1814 47.8292 86.7176 47.8056 87.3606L52.8489 86.3808C52.5608 85.739 52.1502 85.3065 51.6169 85.0835C51.0952 84.8434 50.5553 84.7775 49.9973 84.8859ZM65.3762 90.8063L63.7918 82.6513L60.8302 83.2267L60.3299 80.6515L69.4077 78.8878L69.908 81.4631L66.7319 82.0801L68.3162 90.2351L65.3762 90.8063ZM71.1552 89.6836L74.0543 84.8889C72.6272 84.4981 71.7789 83.6087 71.5093 82.221C71.3036 81.1622 71.486 80.2286 72.0564 79.4199C72.6268 78.6113 73.5272 78.0875 74.7576 77.8484L79.5003 76.927L81.585 87.6572L78.6449 88.2284L77.9862 84.8377L76.9561 85.0378L74.4816 89.0373L71.1552 89.6836ZM75.8966 82.7939L77.5276 82.477L77.0231 79.8803L75.3706 80.2014C74.4836 80.3737 74.1276 80.9105 74.3027 81.8119C74.3778 82.1982 74.5663 82.4807 74.8683 82.6596C75.1675 82.8242 75.5103 82.869 75.8966 82.7939ZM97.0584 84.6511L92.2758 81.1261L93.1097 85.4182L90.1696 85.9894L89.3274 81.6544L86.1994 86.7608L82.5511 87.4696L86.4709 81.0513L81.1746 76.6017L84.5868 75.9388L88.9354 79.6371L88.0849 75.2592L91.025 74.688L91.863 79.0015L94.4801 74.0167L97.8923 73.3538L94.6259 79.4669L100.707 83.9423L97.0584 84.6511ZM105.925 83.1733C104.28 83.493 102.825 83.2263 101.561 82.3733C100.311 81.5175 99.5272 80.2741 99.2103 78.6431C98.899 77.0407 99.1699 75.6073 100.023 74.3429C100.89 73.0757 102.139 72.2837 103.77 71.9668C105.416 71.6471 106.892 71.9468 108.199 72.8658C109.503 73.7705 110.301 75.2041 110.593 77.1665L102.224 78.7926C102.411 79.4539 102.8 79.9648 103.39 80.3253C103.977 80.6716 104.707 80.7599 105.579 80.5904C106.109 80.4875 106.554 80.297 106.916 80.0189C107.289 79.7237 107.526 79.3734 107.625 78.9681L110.694 78.3719C110.593 79.5346 110.11 80.5638 109.245 81.4595C108.377 82.3408 107.27 82.9121 105.925 83.1733ZM104.147 74.3656C103.475 74.4962 102.945 74.7849 102.556 75.2315C102.179 75.661 101.979 76.1973 101.956 76.8403L106.999 75.8605C106.711 75.2186 106.3 74.7862 105.767 74.5631C105.245 74.323 104.705 74.2572 104.147 74.3656ZM113.648 81.6508C113.018 81.7731 112.546 81.8276 112.232 81.8145L111.748 79.3251C112.069 79.2925 112.322 79.2582 112.508 79.2221C112.951 79.1359 113.254 78.936 113.416 78.6225C113.575 78.2947 113.586 77.7802 113.45 77.0792L112.187 70.5767L121.372 68.7922L123.456 79.5224L120.516 80.0936L118.932 71.9386L115.627 72.5807L116.461 76.8728C116.719 78.2034 116.559 79.2887 115.98 80.1287C115.412 80.9516 114.635 81.459 113.648 81.6508ZM131.064 78.2893C129.419 78.609 127.964 78.3423 126.7 77.4892C125.45 76.6334 124.666 75.39 124.349 73.759C124.038 72.1566 124.309 70.7233 125.162 69.4588C126.029 68.1917 127.278 67.3996 128.909 67.0828C130.555 66.7631 132.031 67.0628 133.338 67.9818C134.642 68.8865 135.44 70.32 135.732 72.2825L127.363 73.9085C127.55 74.5698 127.939 75.0808 128.529 75.4413C129.116 75.7875 129.846 75.8759 130.718 75.7063C131.248 75.6035 131.693 75.413 132.055 75.1349C132.428 74.8396 132.664 74.4894 132.764 74.084L135.833 73.4878C135.732 74.6506 135.249 75.6798 134.384 76.5754C133.516 77.4567 132.409 78.028 131.064 78.2893ZM129.286 69.4815C128.614 69.6122 128.084 69.9008 127.695 70.3474C127.318 70.777 127.118 71.3132 127.095 71.9562L132.138 70.9764C131.85 70.3346 131.439 69.9021 130.906 69.6791C130.384 69.439 129.844 69.3731 129.286 69.4815ZM143.55 75.8636C141.905 76.1832 140.45 75.9165 139.185 75.0635C137.935 74.2077 137.152 72.9643 136.835 71.3333C136.524 69.7309 136.794 68.2975 137.648 67.0331C138.515 65.7659 139.764 64.9739 141.395 64.657C143.04 64.3374 144.516 64.637 145.823 65.556C147.127 66.4607 147.926 67.8943 148.218 69.8567L139.848 71.4828C140.036 72.1441 140.425 72.655 141.015 73.0156C141.601 73.3618 142.331 73.4501 143.204 73.2806C143.733 73.1777 144.179 72.9873 144.541 72.7091C144.914 72.4139 145.15 72.0636 145.25 71.6583L148.318 71.0621C148.218 72.2249 147.735 73.2541 146.869 74.1497C146.001 75.031 144.895 75.6023 143.55 75.8636ZM141.772 67.0558C141.1 67.1865 140.569 67.4751 140.181 67.9217C139.804 68.3512 139.604 68.8875 139.58 69.5305L144.624 68.5507C144.336 67.9088 143.925 67.4764 143.392 67.2534C142.87 67.0133 142.33 66.9474 141.772 67.0558ZM43.0859 120.604L40.1458 121.176L39.3036 116.841C39.1215 117.203 38.7866 117.542 38.299 117.86C37.8113 118.177 37.2241 118.403 36.5374 118.536C35.3642 118.764 34.3361 118.593 33.4532 118.022C32.5702 117.451 31.994 116.472 31.7243 115.084L31.0864 111.8L34.0265 111.229L34.5977 114.169C34.8534 115.485 35.6108 116.021 36.8698 115.777C37.4564 115.663 37.9196 115.372 38.2595 114.905C38.6137 114.436 38.7129 113.8 38.5573 112.999L38.0611 110.445L41.0012 109.874L43.0859 120.604ZM50.1166 119.483C48.7002 119.759 47.3986 119.44 46.2117 118.527C45.0248 117.615 44.2826 116.393 43.9852 114.862C43.6878 113.331 43.9185 111.92 44.6773 110.63C45.4362 109.339 46.5238 108.556 47.9402 108.281C48.6269 108.148 49.2699 108.171 49.8692 108.352C50.4685 108.532 50.9487 108.788 51.3099 109.118L51.0764 107.917L54.0165 107.345L56.1012 118.076L53.1611 118.647L52.9276 117.445C52.7165 117.887 52.3669 118.304 51.8788 118.696C51.3908 119.087 50.8034 119.35 50.1166 119.483ZM48.085 116.248C48.6914 116.694 49.4023 116.838 50.2178 116.68C51.0333 116.521 51.6315 116.123 52.0123 115.485C52.4074 114.844 52.5216 114.094 52.3548 113.236C52.188 112.378 51.8014 111.725 51.1951 111.279C50.603 110.83 49.8992 110.684 49.0837 110.843C48.2682 111.001 47.6629 111.401 47.2678 112.042C46.887 112.68 46.78 113.428 46.9468 114.287C47.1135 115.145 47.4929 115.799 48.085 116.248ZM58.7448 117.562L56.6601 106.832L59.6002 106.261L61.1846 114.416L64.2964 113.811L62.712 105.656L65.6521 105.085L67.2365 113.24L70.3482 112.635L68.7639 104.48L71.7039 103.909L73.7886 114.639L58.7448 117.562ZM83.4246 112.767L78.5049 109.224L79.3471 113.559L76.407 114.131L74.3223 103.4L77.2624 102.829L78.1129 107.207L80.8892 102.125L84.3873 101.445L80.9492 107.592L87.2016 112.033L83.4246 112.767ZM90.6521 111.363L88.0124 111.876L85.9277 101.146L88.8678 100.575L90.0978 106.905L93.675 99.6406L96.2932 99.1319L98.3778 109.862L95.4592 110.429L94.2293 104.098L90.6521 111.363ZM112.708 107.078L107.788 103.535L108.631 107.87L105.691 108.441L103.606 97.7112L106.546 97.14L107.396 101.518L110.173 96.4354L113.671 95.7557L110.233 101.902L116.485 106.344L112.708 107.078ZM125.307 103.205C124.414 104.492 123.188 105.287 121.628 105.59C120.069 105.893 118.634 105.615 117.324 104.756C116.011 103.883 115.201 102.659 114.896 101.085C114.593 99.5259 114.886 98.0955 115.777 96.7942C116.667 95.4928 117.892 94.6906 119.452 94.3877C121.011 94.0847 122.447 94.3699 123.76 95.2432C125.073 96.1165 125.881 97.3328 126.184 98.8923C126.49 100.466 126.197 101.904 125.307 103.205ZM121.094 102.843C121.853 102.696 122.431 102.309 122.829 101.682C123.238 101.038 123.362 100.302 123.201 99.4719C123.04 98.642 122.65 98.0125 122.032 97.5832C121.426 97.1368 120.744 96.9873 119.985 97.1346C119.213 97.2847 118.622 97.6816 118.212 98.3254C117.814 98.952 117.696 99.6802 117.857 100.51C118.018 101.34 118.402 101.978 119.009 102.424C119.627 102.854 120.322 102.993 121.094 102.843ZM138.266 106.767L135.326 107.338L134.5 103.089L134.264 103.135C132.476 103.483 130.961 103.213 129.719 102.325C128.478 101.438 127.706 100.215 127.403 98.6555C127.1 97.096 127.358 95.6726 128.177 94.3851C128.996 93.0976 130.299 92.2802 132.088 91.9327L132.324 91.8869L131.327 86.7578L134.267 86.1866L135.264 91.3157L135.478 91.274C137.267 90.9265 138.782 91.1964 140.023 92.0836C141.264 92.9708 142.036 94.1941 142.339 95.7536C142.642 97.3131 142.384 98.7365 141.566 100.024C140.747 101.311 139.443 102.129 137.655 102.476L137.44 102.518L138.266 106.767ZM136.004 93.978L135.789 94.0197L136.915 99.814L137.129 99.7723C137.988 99.6056 138.613 99.1945 139.005 98.5393C139.409 97.8669 139.533 97.1302 139.378 96.329C139.222 95.5278 138.833 94.8982 138.209 94.4403C137.583 93.9681 136.848 93.814 136.004 93.978ZM133.975 100.385L132.849 94.5909L132.613 94.6368C131.769 94.8008 131.145 95.2189 130.741 95.8913C130.334 96.5493 130.209 97.2789 130.364 98.0801C130.52 98.8813 130.904 99.5194 131.516 99.9944C132.139 100.452 132.88 100.598 133.739 100.431L133.975 100.385ZM150.288 100.022C148.643 100.342 147.188 100.075 145.923 99.2219C144.673 98.3661 143.89 97.1227 143.573 95.4917C143.262 93.8893 143.532 92.4559 144.385 91.1915C145.253 89.9243 146.502 89.1323 148.133 88.8154C149.778 88.4958 151.254 88.7954 152.561 89.7144C153.865 90.6191 154.664 92.0527 154.956 94.0151L146.586 95.6412C146.774 96.3025 147.163 96.8134 147.752 97.174C148.339 97.5202 149.069 97.6085 149.942 97.439C150.471 97.3361 150.917 97.1457 151.278 96.8675C151.652 96.5723 151.888 96.222 151.987 95.8167L155.056 95.2205C154.956 96.3833 154.473 97.4125 153.607 98.3081C152.739 99.1894 151.633 99.7607 150.288 100.022ZM148.51 91.2142C147.837 91.3449 147.307 91.6335 146.919 92.0801C146.542 92.5096 146.342 93.0459 146.318 93.6889L151.361 92.7091C151.073 92.0672 150.663 91.6348 150.129 91.4118C149.608 91.1717 149.068 91.1058 148.51 91.2142Z" fill="white"/>
</svg>
